<svg version="1.1" id="Layer_1" xmlns="http://www.w3.org/2000/svg" xmlns:xlink="http://www.w3.org/1999/xlink" x="0px" y="0px"
	 width="100%" viewBox="0 0 215 234" enable-background="new 0 0 215 234" xml:space="preserve">
<path fill="#FFFFFF" opacity="1.000000" stroke="none" 
	d="
M120.000000,235.000000 
	C80.000000,235.000000 40.500004,235.000000 1.000005,235.000000 
	C1.000004,157.000000 1.000004,79.000015 1.000002,1.000016 
	C72.666656,1.000010 144.333313,1.000010 215.999969,1.000005 
	C215.999985,78.999985 215.999985,156.999969 216.000000,234.999969 
	C184.166672,235.000000 152.333328,235.000000 120.000000,235.000000 
M65.326653,139.342392 
	C65.326653,139.342392 65.320885,139.385986 65.066521,139.949036 
	C65.115547,140.352051 65.164574,140.755051 65.051666,141.826569 
	C65.940041,145.308929 63.684418,150.375763 69.762611,151.943832 
	C69.185066,153.216278 67.888741,154.670700 68.156700,155.729080 
	C69.212860,159.900757 70.635925,163.997757 72.234642,167.997864 
	C72.540947,168.764252 74.402771,169.551224 75.295578,169.327133 
	C78.719322,168.467834 82.146263,167.425766 85.328949,165.933472 
	C86.165382,165.541290 86.127182,163.283722 87.314728,161.946335 
	C89.167191,162.411728 91.019653,162.877121 92.945953,163.859375 
	C93.283157,164.238434 93.620361,164.617477 93.937851,165.923767 
	C93.910728,169.859894 94.336617,173.864227 93.756424,177.717056 
	C92.740303,184.464783 91.106789,191.119507 89.028069,198.071823 
	C86.785522,201.704147 87.762054,203.692139 92.062103,203.772842 
	C96.387611,203.854004 100.722099,203.919601 105.039024,203.710526 
	C106.321724,203.648392 108.469086,202.799377 108.608704,202.021606 
	C108.833946,200.766907 107.722702,199.272293 107.028717,197.066406 
	C106.741737,186.516129 100.874207,176.823425 102.811546,165.950409 
	C103.245575,165.403351 103.679604,164.856277 104.900276,164.311584 
	C108.177055,164.643417 111.453827,164.975250 115.102600,165.742477 
	C115.960693,166.487061 116.818787,167.231628 117.681297,168.878448 
	C117.652740,171.691147 118.042801,174.585434 117.513596,177.300552 
	C116.168808,184.200058 114.412529,191.019363 112.152832,198.184860 
	C110.260895,202.583908 110.782845,203.643784 115.146622,203.764511 
	C119.122711,203.874512 123.111938,203.932541 127.079620,203.719696 
	C128.726624,203.631317 130.332657,202.779572 131.957321,202.274979 
	C131.258850,200.544006 130.560394,198.813049 129.976837,196.225449 
	C128.652512,186.816971 127.328201,177.408493 126.464165,167.889084 
	C126.758324,167.726089 126.943695,167.480881 127.762733,167.068466 
	C128.509644,167.048798 129.256546,167.029129 130.052811,167.736420 
	C133.904343,170.617493 137.755890,173.498550 142.031509,176.696838 
	C144.384949,173.230545 146.190445,170.303589 148.269836,167.586227 
	C150.233994,165.019470 151.488922,162.444260 150.922089,159.217133 
	C152.441956,158.041504 154.628296,157.179688 155.357178,155.631638 
	C157.576248,150.918625 159.232986,145.940857 161.756866,140.729187 
	C164.150803,138.845108 167.483215,137.397705 168.629944,134.933289 
	C169.486313,133.092911 168.249710,129.207626 166.609558,127.573044 
	C164.915878,125.885109 161.608032,125.816833 158.698853,124.439240 
	C154.468811,121.585495 150.238754,118.731743 146.027130,115.086563 
	C145.971466,112.366776 146.174042,109.303185 141.140244,112.022827 
	C134.446854,111.319328 127.753471,110.615829 121.001991,109.080719 
	C121.266235,107.161919 121.530479,105.243126 121.839813,102.996933 
	C131.776535,102.996933 141.264252,103.156570 150.743973,102.949654 
	C159.314636,102.762589 166.423859,96.431114 166.998245,88.288353 
	C167.899811,75.507576 168.588226,62.704914 169.013840,49.899788 
	C169.305740,41.117420 163.806656,34.467880 155.230194,32.925915 
	C132.012482,28.751579 108.567421,28.177528 85.078644,29.190237 
	C76.848663,29.545067 70.527847,36.014416 69.883980,44.379574 
	C69.015701,55.660252 68.866707,66.999985 67.861191,78.265480 
	C66.589523,92.512939 74.826576,99.245621 86.580673,100.106125 
	C94.976288,100.720741 103.320656,102.035217 111.906853,103.063644 
	C111.625816,105.143311 111.406097,106.769203 110.239723,108.348389 
	C103.527100,107.741302 96.814484,107.134209 89.835793,105.946381 
	C87.022652,103.777847 85.678429,105.092667 84.292831,108.127281 
	C79.139870,110.688728 73.986900,113.250175 68.137840,115.642822 
	C63.003342,114.896111 59.526077,116.605034 58.238888,120.507736 
	C56.856956,124.697716 58.538471,127.776047 63.935043,131.879562 
	C64.148705,133.586411 64.362366,135.293259 64.427589,137.531418 
	C64.718933,138.123398 65.010284,138.715378 65.326653,139.342392 
z"/>
<path fill="#7E6CAE" opacity="1.000000" stroke="none" 
	d="
M111.186386,108.395096 
	C111.406097,106.769203 111.625816,105.143311 111.906853,103.063644 
	C103.320656,102.035217 94.976288,100.720741 86.580673,100.106125 
	C74.826576,99.245621 66.589523,92.512939 67.861191,78.265480 
	C68.866707,66.999985 69.015701,55.660252 69.883980,44.379574 
	C70.527847,36.014416 76.848663,29.545067 85.078644,29.190237 
	C108.567421,28.177528 132.012482,28.751579 155.230194,32.925915 
	C163.806656,34.467880 169.305740,41.117420 169.013840,49.899788 
	C168.588226,62.704914 167.899811,75.507576 166.998245,88.288353 
	C166.423859,96.431114 159.314636,102.762589 150.743973,102.949654 
	C141.264252,103.156570 131.776535,102.996933 121.839813,102.996933 
	C121.530479,105.243126 121.266235,107.161919 120.969208,109.865585 
	C119.897430,113.733841 117.605400,114.461502 114.756638,113.699455 
	C112.134773,112.998093 110.417305,111.479675 111.186386,108.395096 
M76.968651,64.319740 
	C76.644005,70.116737 76.165405,75.910324 76.037201,81.711662 
	C75.904022,87.737724 78.777451,91.119034 84.697708,91.889877 
	C105.915466,94.652527 127.135231,97.306564 148.622208,95.112885 
	C157.335800,94.223289 159.747452,91.715569 160.032181,82.931465 
	C160.354736,72.981071 160.639557,63.008095 161.586334,53.106670 
	C162.238678,46.284470 159.213516,41.135063 152.482697,40.145153 
	C130.714127,36.943626 108.808044,36.407955 86.857521,37.035938 
	C81.892334,37.177990 78.365036,40.602802 78.002563,45.474186 
	C77.559486,51.428860 77.310173,57.397953 76.968651,64.319740 
z"/>
<path fill="#A694C6" opacity="1.000000" stroke="none" 
	d="
M110.713058,108.371742 
	C110.417305,111.479675 112.134773,112.998093 114.756638,113.699455 
	C117.605400,114.461502 119.897430,113.733841 120.998260,110.281387 
	C127.753471,110.615829 134.446854,111.319328 141.568115,112.462753 
	C141.741287,114.187607 141.078934,115.550613 141.307343,116.742989 
	C142.027176,120.500877 138.300446,124.635925 142.199509,128.505127 
	C141.821045,131.360947 141.354431,133.777771 141.252548,136.209885 
	C141.059906,140.809860 141.076797,145.418594 141.019882,150.422211 
	C141.030014,151.883881 141.026871,152.947021 140.669754,154.141815 
	C139.878784,155.211304 139.150620,156.119858 139.052826,157.091827 
	C138.489609,162.689804 135.556961,166.018021 130.003464,167.009460 
	C129.256546,167.029129 128.509644,167.048798 127.320129,166.717422 
	C122.944649,164.682083 119.028175,162.809555 114.730606,165.307098 
	C111.453827,164.975250 108.177055,164.643417 104.331955,163.935883 
	C100.174042,161.440567 96.558655,160.611282 92.872116,163.342499 
	C91.019653,162.877121 89.167191,162.411728 86.688225,161.684479 
	C83.189095,157.888550 82.219406,153.867661 83.000809,148.941193 
	C83.969284,139.657669 84.923721,130.835358 86.219604,121.854240 
	C87.741318,116.639320 88.921585,111.583221 90.101860,106.527122 
	C96.814484,107.134209 103.527100,107.741302 110.713058,108.371742 
M131.307678,154.678513 
	C132.481537,144.778320 133.657074,134.878311 134.828278,124.977806 
	C135.204300,121.799057 133.344086,121.115562 130.633148,120.826508 
	C120.222214,119.716461 109.819672,118.511360 99.435745,117.173050 
	C95.675941,116.688477 94.376190,118.314415 94.037941,121.792236 
	C93.185211,130.559479 92.198463,139.315460 91.120995,148.058151 
	C90.727219,151.253250 91.379021,153.036621 95.038841,153.404358 
	C105.619362,154.467453 116.164619,155.881088 126.744583,156.950836 
	C128.123337,157.090225 129.624298,156.020935 131.307678,154.678513 
z"/>
<path fill="#7C6BAD" opacity="1.000000" stroke="none" 
	d="
M89.731934,197.813202 
	C91.106789,191.119507 92.740303,184.464783 93.756424,177.717056 
	C94.336617,173.864227 93.910728,169.859894 94.369095,165.458313 
	C97.285942,165.334091 99.771545,165.675308 102.257156,166.016525 
	C100.874207,176.823425 106.741737,186.516129 106.722137,197.356949 
	C100.833931,195.646744 95.276093,196.041260 89.731934,197.813202 
z"/>
<path fill="#7C6BAD" opacity="1.000000" stroke="none" 
	d="
M126.003876,168.000015 
	C127.328201,177.408493 128.652512,186.816971 129.496002,196.636887 
	C123.617096,197.322479 118.219032,197.596619 112.820969,197.870758 
	C114.412529,191.019363 116.168808,184.200058 117.513596,177.300552 
	C118.042801,174.585434 117.652740,171.691147 118.149612,168.405640 
	C121.079910,167.955215 123.541893,167.977615 126.003876,168.000015 
z"/>
<path fill="#50456F" opacity="1.000000" stroke="none" 
	d="
M82.986771,149.402420 
	C82.219406,153.867661 83.189095,157.888550 86.276184,161.652710 
	C86.127182,163.283722 86.165382,165.541290 85.328949,165.933472 
	C82.146263,167.425766 78.719322,168.467834 75.295578,169.327133 
	C74.402771,169.551224 72.540947,168.764252 72.234642,167.997864 
	C70.635925,163.997757 69.212860,159.900757 68.156700,155.729080 
	C67.888741,154.670700 69.185066,153.216278 69.970222,151.322159 
	C71.129913,149.839203 72.081993,148.977921 73.403938,148.082199 
	C74.512062,147.967010 75.250313,147.886246 76.371567,147.867798 
	C77.528168,147.960068 78.301758,147.990036 79.202194,148.371582 
	C80.548286,148.949585 81.767525,149.176010 82.986771,149.402420 
z"/>
<path fill="#514670" opacity="1.000000" stroke="none" 
	d="
M130.028137,167.372940 
	C135.556961,166.018021 138.489609,162.689804 139.052826,157.091827 
	C139.150620,156.119858 139.878784,155.211304 140.993546,153.996506 
	C147.771851,150.845566 149.801025,152.158478 150.151611,159.206482 
	C151.488922,162.444260 150.233994,165.019470 148.269836,167.586227 
	C146.190445,170.303589 144.384949,173.230545 142.031509,176.696838 
	C137.755890,173.498550 133.904343,170.617493 130.028137,167.372940 
z"/>
<path fill="#7C6BAC" opacity="1.000000" stroke="none" 
	d="
M150.536850,159.211807 
	C149.801025,152.158478 147.771851,150.845566 141.347519,153.864853 
	C141.026871,152.947021 141.030014,151.883881 141.271301,150.195282 
	C145.604996,145.362183 149.700562,141.154556 154.130524,137.056885 
	C156.679504,138.466599 158.894058,139.766373 161.108627,141.066147 
	C159.232986,145.940857 157.576248,150.918625 155.357178,155.631638 
	C154.628296,157.179688 152.441956,158.041504 150.536850,159.211807 
z"/>
<path fill="#524772" opacity="1.000000" stroke="none" 
	d="
M63.977329,131.013000 
	C58.538471,127.776047 56.856956,124.697716 58.238888,120.507736 
	C59.526077,116.605034 63.003342,114.896111 68.803276,115.926018 
	C70.763878,118.930061 72.059044,121.650909 73.248764,124.680313 
	C72.718826,125.983681 72.294334,126.978493 71.612473,128.121216 
	C70.535110,129.106903 69.715118,129.944687 68.667549,130.807678 
	C68.439972,130.832901 67.995247,130.942139 67.593491,130.944977 
	C66.120262,130.969543 65.048798,130.991272 63.977329,131.013000 
z"/>
<path fill="#514570" opacity="1.000000" stroke="none" 
	d="
M161.432739,140.897675 
	C158.894058,139.766373 156.679504,138.466599 154.212189,136.690460 
	C153.892059,135.217361 153.824692,134.220612 153.809052,132.832733 
	C155.575974,129.974411 157.291153,127.507195 159.006348,125.039986 
	C161.608032,125.816833 164.915878,125.885109 166.609558,127.573044 
	C168.249710,129.207626 169.486313,133.092911 168.629944,134.933289 
	C167.483215,137.397705 164.150803,138.845108 161.432739,140.897675 
z"/>
<path fill="#574C74" opacity="1.000000" stroke="none" 
	d="
M112.486908,198.027802 
	C118.219032,197.596619 123.617096,197.322479 129.438538,197.065201 
	C130.560394,198.813049 131.258850,200.544006 131.957321,202.274979 
	C130.332657,202.779572 128.726624,203.631317 127.079620,203.719696 
	C123.111938,203.932541 119.122711,203.874512 115.146622,203.764511 
	C110.782845,203.643784 110.260895,202.583908 112.486908,198.027802 
z"/>
<path fill="#7E6CAE" opacity="1.000000" stroke="none" 
	d="
M73.354210,124.371750 
	C72.059044,121.650909 70.763878,118.930061 69.151321,116.010422 
	C73.986900,113.250175 79.139870,110.688728 84.653519,108.489563 
	C84.672516,112.511871 84.330818,116.171890 83.629036,119.895416 
	C79.964027,121.429871 76.659119,122.900810 73.354210,124.371750 
z"/>
<path fill="#574D75" opacity="1.000000" stroke="none" 
	d="
M89.380005,197.942505 
	C95.276093,196.041260 100.833931,195.646744 106.795761,197.763245 
	C107.722702,199.272293 108.833946,200.766907 108.608704,202.021606 
	C108.469086,202.799377 106.321724,203.648392 105.039024,203.710526 
	C100.722099,203.919601 96.387611,203.854004 92.062103,203.772842 
	C87.762054,203.692139 86.785522,201.704147 89.380005,197.942505 
z"/>
<path fill="#7E6CAD" opacity="1.000000" stroke="none" 
	d="
M158.852600,124.739609 
	C157.291153,127.507195 155.575974,129.974411 153.505753,132.690125 
	C150.479828,131.137985 147.808914,129.337372 145.086273,127.124359 
	C145.359253,123.100639 145.683975,119.489319 146.008713,115.877991 
	C150.238754,118.731743 154.468811,121.585495 158.852600,124.739609 
z"/>
<path fill="#7D6CAE" opacity="1.000000" stroke="none" 
	d="
M67.995247,130.942139 
	C67.995247,130.942139 68.439972,130.832901 68.813797,131.145767 
	C73.450737,136.077118 74.725548,141.938843 75.988571,147.805481 
	C75.250313,147.886246 74.512062,147.967010 73.345459,147.723969 
	C70.349274,145.319473 67.781433,143.238770 65.213600,141.158066 
	C65.164574,140.755051 65.115547,140.352051 65.592880,139.552612 
	C70.708992,137.323593 67.870552,133.794495 67.995247,130.942139 
z"/>
<path fill="#B7ABD3" opacity="1.000000" stroke="none" 
	d="
M146.017914,115.482277 
	C145.683975,119.489319 145.359253,123.100639 144.729126,127.210045 
	C143.707840,127.829765 142.991928,127.951408 142.276031,128.073044 
	C138.300446,124.635925 142.027176,120.500877 141.307343,116.742989 
	C141.078934,115.550613 141.741287,114.187607 141.999115,112.482986 
	C146.174042,109.303185 145.971466,112.366776 146.017914,115.482277 
z"/>
<path fill="#B7ABD3" opacity="1.000000" stroke="none" 
	d="
M83.989128,119.831909 
	C84.330818,116.171890 84.672516,112.511871 85.006981,108.418793 
	C85.678429,105.092667 87.022652,103.777847 89.968826,106.236755 
	C88.921585,111.583221 87.741318,116.639320 85.948593,121.728455 
	C84.887138,121.118301 84.438133,120.475105 83.989128,119.831909 
z"/>
<path fill="#7B69AC" opacity="1.000000" stroke="none" 
	d="
M65.132629,141.492310 
	C67.781433,143.238770 70.349274,145.319473 72.975594,147.758392 
	C72.081993,148.977921 71.129913,149.839203 69.983948,150.964645 
	C63.684418,150.375763 65.940041,145.308929 65.132629,141.492310 
z"/>
<path fill="#B9ADD5" opacity="1.000000" stroke="none" 
	d="
M102.534348,165.983459 
	C99.771545,165.675308 97.285942,165.334091 94.378952,164.994705 
	C93.620361,164.617477 93.283157,164.238434 92.909035,163.600937 
	C96.558655,160.611282 100.174042,161.440567 103.938637,163.934692 
	C103.679604,164.856277 103.245575,165.403351 102.534348,165.983459 
z"/>
<path fill="#BBB0D5" opacity="1.000000" stroke="none" 
	d="
M126.234024,167.944550 
	C123.541893,167.977615 121.079910,167.955215 118.147400,167.954498 
	C116.818787,167.231628 115.960693,166.487061 114.916603,165.524780 
	C119.028175,162.809555 122.944649,164.682083 126.948914,166.759918 
	C126.943695,167.480881 126.758324,167.726089 126.234024,167.944550 
z"/>
<path fill="#7B69AC" opacity="1.000000" stroke="none" 
	d="
M67.593491,130.944977 
	C67.870552,133.794495 70.708992,137.323593 65.720062,139.271088 
	C65.320885,139.385986 65.326653,139.342392 65.520660,139.071747 
	C65.335114,138.200775 64.955566,137.600449 64.576019,137.000107 
	C64.362366,135.293259 64.148705,133.586411 63.956184,131.446289 
	C65.048798,130.991272 66.120262,130.969543 67.593491,130.944977 
z"/>
<path fill="#7D6CAE" opacity="1.000000" stroke="none" 
	d="
M64.501801,137.265762 
	C64.955566,137.600449 65.335114,138.200775 65.508148,139.054230 
	C65.010284,138.715378 64.718933,138.123398 64.501801,137.265762 
z"/>
<path fill="#B6AAD3" opacity="1.000000" stroke="none" 
	d="
M76.972862,63.840275 
	C77.310173,57.397953 77.559486,51.428860 78.002563,45.474186 
	C78.365036,40.602802 81.892334,37.177990 86.857521,37.035938 
	C108.808044,36.407955 130.714127,36.943626 152.482697,40.145153 
	C159.213516,41.135063 162.238678,46.284470 161.586334,53.106670 
	C160.639557,63.008095 160.354736,72.981071 160.032181,82.931465 
	C159.747452,91.715569 157.335800,94.223289 148.622208,95.112885 
	C127.135231,97.306564 105.915466,94.652527 84.697708,91.889877 
	C78.777451,91.119034 75.904022,87.737724 76.037201,81.711662 
	C76.165405,75.910324 76.644005,70.116737 76.972862,63.840275 
M98.066727,58.490730 
	C98.919281,65.258224 101.093330,68.427841 104.643494,68.079216 
	C107.927567,67.756714 110.680176,63.217663 110.872841,57.786850 
	C110.896416,57.122356 110.987793,56.424068 110.831192,55.795387 
	C109.957703,52.288868 109.706306,47.709705 105.258728,47.311184 
	C100.739273,46.906227 99.637321,51.166523 98.621910,54.742138 
	C98.351875,55.693039 98.251183,56.692032 98.066727,58.490730 
M127.408508,55.389053 
	C127.732834,59.267399 127.327820,63.400059 128.568710,66.958809 
	C130.072372,71.271133 134.858017,71.492615 136.835068,67.348549 
	C138.388077,64.093346 139.175629,60.012203 138.806152,56.453388 
	C138.534241,53.834301 136.355972,50.161060 134.115128,49.281673 
	C130.433075,47.836693 128.976944,51.685909 127.408508,55.389053 
M104.662338,81.996162 
	C114.550560,86.421516 124.220963,86.475121 133.561295,80.452179 
	C128.107147,80.327980 122.678009,81.994026 117.355003,81.705078 
	C111.982361,81.413437 106.714973,79.182640 101.401474,77.801392 
	C101.197411,78.253929 100.993355,78.706459 100.789291,79.158989 
	C101.846939,80.013695 102.904579,80.868408 104.662338,81.996162 
z"/>
<path fill="#2F3542" opacity="1.000000" stroke="none" 
	d="
M131.188171,155.095001 
	C129.624298,156.020935 128.123337,157.090225 126.744583,156.950836 
	C116.164619,155.881088 105.619362,154.467453 95.038841,153.404358 
	C91.379021,153.036621 90.727219,151.253250 91.120995,148.058151 
	C92.198463,139.315460 93.185211,130.559479 94.037941,121.792236 
	C94.376190,118.314415 95.675941,116.688477 99.435745,117.173050 
	C109.819672,118.511360 120.222214,119.716461 130.633148,120.826508 
	C133.344086,121.115562 135.204300,121.799057 134.828278,124.977806 
	C133.657074,134.878311 132.481537,144.778320 131.188171,155.095001 
M125.416428,131.891281 
	C125.392311,131.006180 125.617889,129.452881 125.306503,129.336533 
	C120.857330,127.673935 118.085899,129.211838 116.535034,133.951355 
	C116.142075,135.152252 115.610359,136.307770 114.966743,137.925705 
	C117.201744,137.925705 119.015488,137.726028 120.768181,137.968185 
	C124.187538,138.440582 125.481209,143.738098 122.358215,144.946655 
	C120.464233,145.679611 117.600609,143.906967 114.952408,143.201294 
	C114.941971,146.157364 116.664017,147.753891 119.989532,148.046371 
	C123.586258,148.362717 125.885704,146.657364 126.513634,143.301941 
	C127.578201,137.613373 123.618446,135.559631 119.048714,134.360825 
	C119.438522,129.455414 122.617889,132.124710 125.416428,131.891281 
M110.852776,136.259018 
	C112.521210,133.714386 113.662483,130.758484 110.746948,128.779556 
	C108.978134,127.578979 106.087975,127.338226 103.887634,127.724907 
	C102.564484,127.957451 101.598946,130.224777 100.472694,131.577682 
	C100.935593,131.928497 101.398483,132.279312 101.861374,132.630127 
	C102.574539,131.853546 103.156715,130.679047 104.030800,130.391281 
	C105.431030,129.930298 107.491333,129.435089 108.400345,130.117065 
	C109.243782,130.749832 109.472694,133.101913 109.011070,134.338013 
	C108.477173,135.767670 106.924141,136.836304 105.757668,138.005936 
	C103.521065,140.248596 101.244965,142.451889 98.063370,145.577057 
	C103.580734,146.064804 107.579002,146.418259 111.577263,146.771713 
	C111.648125,146.217850 111.718987,145.663986 111.789848,145.110123 
	C109.062904,144.611221 106.335960,144.112305 103.286301,143.554367 
	C105.876518,141.096512 108.135277,138.953186 110.852776,136.259018 
z"/>
<path fill="#FAFAFC" opacity="1.000000" stroke="none" 
	d="
M83.629036,119.895416 
	C84.438133,120.475105 84.887138,121.118301 85.607147,121.887283 
	C84.923721,130.835358 83.969284,139.657669 83.000809,148.941193 
	C81.767525,149.176010 80.548286,148.949585 79.544533,148.220764 
	C79.761292,145.502518 80.488167,142.936920 79.621674,141.139389 
	C77.417786,136.567474 74.501167,132.339157 71.869843,127.973297 
	C72.294334,126.978493 72.718826,125.983681 73.248764,124.680313 
	C76.659119,122.900810 79.964027,121.429871 83.629036,119.895416 
z"/>
<path fill="#FAF9FB" opacity="1.000000" stroke="none" 
	d="
M142.199509,128.505127 
	C142.991928,127.951408 143.707840,127.829765 144.780884,127.622437 
	C147.808914,129.337372 150.479828,131.137985 153.454025,133.081238 
	C153.824692,134.220612 153.892059,135.217361 153.877777,136.580521 
	C149.700562,141.154556 145.604996,145.362183 141.258026,149.796753 
	C141.076797,145.418594 141.059906,140.809860 141.252548,136.209885 
	C141.354431,133.777771 141.821045,131.360947 142.199509,128.505127 
z"/>
<path fill="#7B69AC" opacity="1.000000" stroke="none" 
	d="
M71.612473,128.121216 
	C74.501167,132.339157 77.417786,136.567474 79.621674,141.139389 
	C80.488167,142.936920 79.761292,145.502518 79.417694,147.869171 
	C78.301758,147.990036 77.528168,147.960068 76.371567,147.867798 
	C74.725548,141.938843 73.450737,136.077118 69.041382,131.120544 
	C69.715118,129.944687 70.535110,129.106903 71.612473,128.121216 
z"/>
<path fill="#514670" opacity="1.000000" stroke="none" 
	d="
M98.069733,58.079838 
	C98.251183,56.692032 98.351875,55.693039 98.621910,54.742138 
	C99.637321,51.166523 100.739273,46.906227 105.258728,47.311184 
	C109.706306,47.709705 109.957703,52.288868 110.831192,55.795387 
	C110.987793,56.424068 110.896416,57.122356 110.872841,57.786850 
	C110.680176,63.217663 107.927567,67.756714 104.643494,68.079216 
	C101.093330,68.427841 98.919281,65.258224 98.069733,58.079838 
z"/>
<path fill="#4F446E" opacity="1.000000" stroke="none" 
	d="
M127.573280,55.010586 
	C128.976944,51.685909 130.433075,47.836693 134.115128,49.281673 
	C136.355972,50.161060 138.534241,53.834301 138.806152,56.453388 
	C139.175629,60.012203 138.388077,64.093346 136.835068,67.348549 
	C134.858017,71.492615 130.072372,71.271133 128.568710,66.958809 
	C127.327820,63.400059 127.732834,59.267399 127.573280,55.010586 
z"/>
<path fill="#514670" opacity="1.000000" stroke="none" 
	d="
M104.312279,81.859634 
	C102.904579,80.868408 101.846939,80.013695 100.789291,79.158989 
	C100.993355,78.706459 101.197411,78.253929 101.401474,77.801392 
	C106.714973,79.182640 111.982361,81.413437 117.355003,81.705078 
	C122.678009,81.994026 128.107147,80.327980 133.561295,80.452179 
	C124.220963,86.475121 114.550560,86.421516 104.312279,81.859634 
z"/>
<path fill="#AF4C70" opacity="1.000000" stroke="none" 
	d="
M125.018204,131.877182 
	C122.617889,132.124710 119.438522,129.455414 119.048714,134.360825 
	C123.618446,135.559631 127.578201,137.613373 126.513634,143.301941 
	C125.885704,146.657364 123.586258,148.362717 119.989532,148.046371 
	C116.664017,147.753891 114.941971,146.157364 114.952408,143.201294 
	C117.600609,143.906967 120.464233,145.679611 122.358215,144.946655 
	C125.481209,143.738098 124.187538,138.440582 120.768181,137.968185 
	C119.015488,137.726028 117.201744,137.925705 114.966743,137.925705 
	C115.610359,136.307770 116.142075,135.152252 116.535034,133.951355 
	C118.085899,129.211838 120.857330,127.673935 125.306503,129.336533 
	C125.617889,129.452881 125.392311,131.006180 125.018204,131.877182 
z"/>
<path fill="#D6557E" opacity="1.000000" stroke="none" 
	d="
M110.623398,136.534439 
	C108.135277,138.953186 105.876518,141.096512 103.286301,143.554367 
	C106.335960,144.112305 109.062904,144.611221 111.789848,145.110123 
	C111.718987,145.663986 111.648125,146.217850 111.577263,146.771713 
	C107.579002,146.418259 103.580734,146.064804 98.063370,145.577057 
	C101.244965,142.451889 103.521065,140.248596 105.757668,138.005936 
	C106.924141,136.836304 108.477173,135.767670 109.011070,134.338013 
	C109.472694,133.101913 109.243782,130.749832 108.400345,130.117065 
	C107.491333,129.435089 105.431030,129.930298 104.030800,130.391281 
	C103.156715,130.679047 102.574539,131.853546 101.861374,132.630127 
	C101.398483,132.279312 100.935593,131.928497 100.472694,131.577682 
	C101.598946,130.224777 102.564484,127.957451 103.887634,127.724907 
	C106.087975,127.338226 108.978134,127.578979 110.746948,128.779556 
	C113.662483,130.758484 112.521210,133.714386 110.623398,136.534439 
z"/>
</svg>